<svg xmlns="http://www.w3.org/2000/svg" width="1093" height="493" viewBox="0 0 1093 493" fill="none"><path fill-rule="evenodd" clip-rule="evenodd" d="M178.028 1.60197C175.018 2.41097 168.925 5.00397 164.487 7.36497L156.419 11.657L154.79 7.84398C152.846 3.29198 149.481 1.49999 144.599 2.41499C139.1 3.44699 127.038 12.133 118.329 21.334L110.438 29.67L107.708 27.632C105.85 26.244 102.979 25.466 98.719 25.195C82.837 24.184 53.299 40.193 38.946 57.592C37.066 59.871 35.276 60.834 32.135 61.255C24.965 62.217 17.032 66.818 9.32802 74.482C-3.42998 87.176 -2.42299 93.919 12.834 97.971C15.933 98.794 17.01 99.532 16.615 100.561C14.459 106.179 20.773 106.311 37.5 101C44.428 98.8 50.251 97 50.44 97C50.629 97 51.053 98.075 51.383 99.39C51.713 100.704 52.774 102.098 53.741 102.488C54.709 102.878 62.64 103.608 71.367 104.112C80.095 104.615 87.563 105.23 87.963 105.477C88.364 105.725 99.623 106.644 112.984 107.519C143.876 109.544 154.374 108.368 155.18 102.792C155.556 100.195 162.465 97.693 167.721 98.25C169.706 98.461 171.134 98.094 171.44 97.296C172.307 95.037 175.979 95.815 176.989 98.472C178.161 101.553 178.571 101.64 200.5 103.494C210.4 104.331 223.675 105.455 230 105.992C236.325 106.528 250.821 107.943 262.213 109.136C279.088 110.904 283.212 111.069 284.463 110.03C287.502 107.508 286.222 103.781 279.476 95.5C268.657 82.222 267.704 80.962 268.146 80.521C268.547 80.12 284.717 81.143 300.775 82.586C307.922 83.228 308.2 83.36 316.682 90.145C325.814 97.451 333 103.727 333 104.398C333 104.619 330.637 105.355 327.75 106.032C324.863 106.71 321.712 107.671 320.75 108.167C318.608 109.272 318.444 112.85 320.499 113.638C321.324 113.955 327.737 112.555 334.749 110.528C363.47 102.227 360.388 102.648 379.497 104.422C388.849 105.291 402.036 106.453 408.802 107.006C420.974 108 421.599 108.178 468.302 123.907C494.261 132.651 516.625 140.254 518 140.804C521.612 142.248 506.905 141.427 467 137.956C448.575 136.353 424.5 134.342 413.5 133.487C372.528 130.3 368.29 129.955 359 129.045C353.775 128.533 343.425 127.639 336 127.059C328.575 126.478 316.259 125.515 308.631 124.92C294.453 123.813 292.091 124.19 293.309 127.362C293.625 128.186 295.822 129.247 298.192 129.721L302.5 130.583V142.237C302.5 154.196 303.284 156.873 306.433 155.664C307.73 155.166 308 153.084 308 143.59C308 137.281 308.337 131.923 308.75 131.685C309.57 131.213 322.428 132.116 348 134.442C357.075 135.267 378.675 137.073 396 138.455C429.834 141.154 454.309 143.229 479 145.49C487.525 146.271 500.8 147.217 508.5 147.592C516.939 148.003 522.792 148.716 523.235 149.387C523.639 149.999 523.983 152.075 524 154C524.039 158.406 525.211 160.297 527.62 159.839C529.126 159.552 529.56 158.439 529.802 154.241C530.014 150.574 530.523 149 531.496 149C532.262 149 534.151 147.902 535.694 146.561C541.239 141.74 540.754 141.508 488.687 123.989C470.159 117.755 455 112.321 455 111.914C455 111.507 460.083 105.847 466.295 99.337C478.824 86.206 487.244 75.934 493.96 65.588L498.42 58.717L510.96 59.331C545.045 61.001 577.995 63.899 579.92 65.396C581.843 66.891 601.114 96.219 600.547 96.787C600.129 97.204 565.683 94.954 519 91.461C508.275 90.659 496.658 90.002 493.184 90.001C486.883 90 486.868 90.007 487.184 92.75C487.561 96.032 479.204 95.147 571.25 101.646L596 103.394V111.697C596 119.153 595.808 120 594.122 120C593.09 120 591.685 120.675 591 121.5C589.397 123.432 591.293 126 594.322 126C597.394 126 595.086 127.782 591.509 128.173C586.125 128.761 587.207 133.947 592.721 133.985C594.889 134 594.949 134.316 595.221 147.25L595.5 160.5H598C600.434 160.5 600.517 160.262 601.144 151.5C601.498 146.55 601.836 133.837 601.894 123.25L602 104H604.5C607.456 104 611.384 100.456 610.359 98.714C609.967 98.046 604.438 89.933 598.073 80.684C591.708 71.435 585.79 62.663 584.922 61.191C583.437 58.671 582.675 58.444 571.922 57.319C565.64 56.662 548.8 55.423 534.5 54.565C520.2 53.708 505.677 52.831 502.227 52.617L495.955 52.227L490.036 60.863C486.78 65.613 480.61 73.726 476.325 78.892L468.533 88.283L465.335 81.392C463.575 77.601 462.105 73.543 462.068 72.372C461.977 69.519 459.28 67.327 457.376 68.558C456.575 69.076 452.515 78.05 448.355 88.5C444.195 98.95 440.642 107.658 440.46 107.852C439.962 108.382 429.805 104.964 427.384 103.452C424.982 101.951 413.619 100.663 387.317 98.912C377.317 98.246 368.596 97.368 367.937 96.961C367.137 96.467 366.795 93.413 366.907 87.763C367.035 81.226 366.724 79.016 365.537 78.03C362.465 75.481 361.096 78.438 360.786 88.292L360.5 97.398L350.717 99.773L340.933 102.147L331.217 94.011C325.872 89.536 319.31 84.033 316.634 81.782C311.56 77.514 307.271 76.123 298.939 76.044L294.378 76L293.1 71.014C290.829 62.153 283.77 58.351 271.335 59.291L264 59.846V53.891C264 43.217 258.807 35.453 249.576 32.325C243.925 30.41 229.266 29.932 219.835 31.355L214.17 32.209L213.507 26.355C211.91 12.25 206.693 4.47098 196.874 1.55498C190.478 -0.344023 185.221 -0.331025 178.028 1.60197ZM606.606 40.25C597.087 63.672 596.089 66.819 597.838 67.9C598.542 68.335 606.404 68.982 615.309 69.338C629.153 69.891 631.664 69.764 632.632 68.463C633.522 67.265 632.439 63.594 627.541 51.221C624.119 42.574 620.335 32.238 619.131 28.25C617.926 24.258 616.378 21 615.686 21C614.992 21 610.928 29.615 606.606 40.25ZM535.25 75.584C525.185 84.563 526.756 86.411 544.5 86.468L554.5 86.5L554.816 83.759C555.064 81.605 554.017 79.841 549.92 75.509C547.055 72.479 543.988 70.002 543.105 70.004C542.222 70.007 538.688 72.518 535.25 75.584ZM638.101 72.379C637.318 73.321 636.633 80.025 636.177 91.195L635.468 108.547L631.234 114.887C627.863 119.936 627 122.121 627 125.614C627 129.564 626.764 130 624.625 130C623.319 130 620.82 130.286 619.073 130.635C616.562 131.138 615.96 131.714 616.198 133.385C616.455 135.185 617.283 135.545 621.75 135.802C625.705 136.03 627 136.488 627 137.661C627 138.777 626.361 139.057 624.742 138.65C621.795 137.91 619.711 139.259 620.164 141.612C620.39 142.784 621.642 143.678 623.512 144.002C626.72 144.558 626.623 144.183 626.188 154.392C626.029 158.114 625.636 158.875 623.608 159.384C622.292 159.714 618.966 162.445 616.217 165.453L611.219 170.922L596.359 169.92C588.187 169.368 578.806 168.494 575.514 167.976L569.529 167.034L564.514 171.948L559.5 176.862L552 175.975C547.875 175.487 543.624 175.068 542.554 175.044C540.89 175.006 541.101 174.491 544.009 171.491C547.166 168.234 547.292 167.863 545.765 166.336C543.625 164.197 542.843 164.743 528.5 178.379C518.174 188.197 517.581 188.971 518.817 191.013C520.066 193.075 519.988 193.16 517.317 192.633C509.673 191.127 470.714 185.69 448.5 183.028C398.99 177.097 373.338 173.775 363 171.958C344.987 168.791 340.419 168.466 339.714 170.302C338.445 173.611 341.197 174.481 367 178.925C380.063 181.175 398.897 183.612 449 189.536C470.786 192.111 489.675 194.767 519.5 199.447C559.787 205.769 568.861 207.012 574.662 207.006C577.501 207.003 583.287 207.663 587.519 208.472C596.176 210.129 616.036 211.933 629.359 212.274L638.218 212.5L634.125 215.784C630.035 219.066 630.031 219.067 626.766 217.34C622.491 215.078 611.839 215.222 602.5 217.667C596.889 219.136 595.441 219.914 595.202 221.588C595.038 222.736 595.517 224.184 596.266 224.806C598.506 226.665 615.328 228.914 638.601 230.467C650.646 231.27 664.455 232.624 669.29 233.476C677.627 234.944 723.521 245.008 731.015 247.011C732.949 247.528 739.699 248.41 746.015 248.971C784.746 252.41 788.72 252.948 802.5 256.624C815.522 260.098 817.548 260.367 831.5 260.48C847.624 260.61 850.322 261.146 867 267.536C873.814 270.147 876.492 270.696 880.5 270.308C886.062 269.768 912.308 274.083 919.259 276.679C922.128 277.751 931.102 278.722 947 279.683C975.578 281.409 971.938 281.372 981.429 280.025C990.622 278.72 1019.73 280.066 1037 282.596C1042.78 283.441 1049.3 284.303 1051.5 284.51C1053.7 284.717 1057.47 285.587 1059.88 286.443C1065.5 288.443 1071.42 288.437 1073.43 286.429C1074.3 285.556 1075 283.181 1075 281.089C1075 278.04 1075.48 277.104 1077.5 276.182C1079.32 275.353 1080 274.264 1080 272.176C1080 268.413 1077.38 266.182 1070.96 264.49C1068.08 263.73 1064.55 262.01 1063.11 260.668C1056.7 254.679 1050.14 253.739 1044.69 258.026C1043.31 259.112 1041.92 260 1041.6 260C1041.27 260 1040.09 258.039 1038.96 255.642C1034.7 246.574 1029.84 244.71 1022.84 249.464L1019.21 251.928L1017.9 248.768C1017.18 247.03 1015.29 244.122 1013.69 242.304C1011.39 239.683 1010.03 239 1007.09 239C1002.67 239 995.32 243.337 992.118 247.834L989.93 250.907L985.215 248.365C979.084 245.059 972.22 245.52 962.596 249.884C954.806 253.416 954 253.573 954 251.556C954 248.903 949.374 244.582 946.393 244.452C943.998 244.347 943.437 243.79 942.853 240.938C941.789 235.732 938.544 233.657 932.574 234.364C926.595 235.072 914.721 240.55 909.8 244.871C906.552 247.723 905.928 247.917 903.352 246.885C901.783 246.256 894.435 245.512 887.023 245.232C875.613 244.802 873.13 244.416 870.837 242.722C868.169 240.749 864.52 240.685 858.472 242.506C856.836 242.999 856.205 242.457 855.209 239.702C854.53 237.823 853.085 235.482 851.997 234.497C849.425 232.169 841.492 231.443 835.18 232.957C830.973 233.966 829.724 233.909 827.169 232.587C825.504 231.726 823.845 230.086 823.482 228.942C822.72 226.541 817.432 223.025 814.5 222.97C813.4 222.949 810.7 222.063 808.5 221C806.3 219.937 803.51 219.053 802.299 219.034C797.868 218.966 789.961 221.216 786.588 223.505C783.189 225.812 782.981 225.829 775.312 224.462C771.016 223.696 765.164 223.054 762.309 223.035C759.454 223.016 756.823 222.522 756.462 221.938C755.403 220.225 751.113 218.958 742.872 217.925C738.629 217.393 732.985 215.976 730.329 214.777C726.333 212.973 723.776 212.614 715.506 212.698C706.618 212.788 705.053 212.529 701.359 210.364C695.396 206.87 688.737 206.326 682.25 208.803C677.507 210.614 677 210.648 676.996 209.154C676.994 208.244 676.101 206.038 675.011 204.25C672.297 199.799 668.795 199.881 664.571 204.492L661.373 207.984L651.436 207.018C645.971 206.486 637.191 206.04 631.924 206.026C620.872 205.996 604.843 204.637 590.5 202.514C585 201.699 578.362 200.773 575.75 200.455L571 199.877L571.044 194.689C571.093 188.946 572.554 175.112 573.179 174.488C573.65 174.017 606.243 176.745 610.306 177.596C612.654 178.088 613.632 177.582 616.306 174.494C624.257 165.31 625.655 164.156 629.571 163.538C638.909 162.066 640.605 161.203 642.525 156.945C644.908 151.66 647.034 150.611 653.764 151.402C658.383 151.945 660.01 151.653 664.439 149.486C667.503 147.987 671.491 146.902 674.082 146.864C685.528 146.692 695 147.123 695 147.814C695 148.234 694.117 150.309 693.038 152.425C690.708 156.995 691.609 159.667 695.779 160.557C701.209 161.717 702.852 162.853 703.178 165.673C703.366 167.299 704.39 168.895 705.643 169.516C709.545 171.449 711 173.213 711 176.007C711 177.894 711.842 179.322 713.655 180.509C716.069 182.091 716.544 182.11 718.905 180.716C720.332 179.873 723.213 178.862 725.306 178.47C728.453 177.88 729.518 178.138 731.458 179.961C733.714 182.08 734.287 182.137 746.449 181.444C758.555 180.754 759.179 180.815 761.086 182.862C763.448 185.398 766.199 185.547 772.115 183.46C778.351 181.259 787.198 180.5 789.88 181.936C791.099 182.588 792.513 184.219 793.023 185.561C794.115 188.432 796.108 188.64 800.076 186.296C802.601 184.805 803.689 184.742 808.791 185.796C816.918 187.475 821.87 187.307 831.323 185.033C841.773 182.519 845.346 182.324 863 183.308C876.761 184.075 877.91 183.992 885.547 181.672C892.811 179.465 896.557 179.115 924.047 178.074C940.796 177.44 962.364 176.601 971.975 176.211L989.45 175.5L993.475 178.232C998.51 181.649 999.818 181.653 1006.28 178.27C1010.85 175.882 1012.72 175.524 1021.3 175.402C1029.92 175.28 1031.37 174.999 1033.45 173.048C1037.94 168.827 1047.26 167.972 1059.49 170.659C1067.22 172.358 1067.29 172.351 1074 169.025C1074.82 168.616 1075.5 167.206 1075.5 165.891C1075.5 164.013 1074.9 163.431 1072.69 163.178C1071.14 163.001 1069.22 163.4 1068.42 164.066C1067.28 165.014 1065.34 164.999 1059.48 163.997C1055.09 163.246 1048.45 162.94 1043.38 163.256C1036.08 163.711 1034.27 163.503 1031.54 161.893C1029.25 160.542 1026.47 160.003 1021.91 160.031C1010.44 160.1 1011.36 160.973 1010.6 149.264C1010.23 143.595 1009.51 137.83 1008.98 136.453C1006.63 130.272 1001.64 133.293 999.843 141.981C999.015 145.988 998.073 147.939 996.654 148.584C994.422 149.599 992.202 154.876 992.061 159.5C991.933 163.704 990.465 165.865 988.842 164.242C988.159 163.559 986.452 162.997 985.05 162.993C983.647 162.99 981.15 162.093 979.5 161C973.239 156.854 962.41 158.799 949 166.478L941.5 170.773L916.962 171.884C895.318 172.864 891.372 173.306 883.509 175.638C874.895 178.193 874.237 178.243 864.047 177.14C848.513 175.457 842.98 175.71 830.371 178.68C819.558 181.226 818.597 181.295 811.022 180.065C806.638 179.353 801.886 179.063 800.462 179.42C798.526 179.906 797.112 179.43 794.859 177.535C792.371 175.441 790.808 175 785.877 175H779.908L780.59 165.108C781.25 155.515 781.202 155.179 779.002 154.001C776.877 152.864 776.773 152.354 777.367 145.965C778.12 137.862 778.442 138.304 765.58 129.797C754.832 122.689 752.248 122.159 727.5 122C718.7 121.943 707.112 121.627 701.75 121.298C692.02 120.701 692 120.694 692 118.05C692 114.249 690.245 113 684.907 113C680.032 113 679 113.907 679 118.192C679 120.187 678.669 120.208 658.5 119.488C641.789 118.891 637.689 119.009 636.322 120.128C634.396 121.705 634.609 121.282 639.17 114.481C641.801 110.558 641.845 110.215 642.17 91.014C642.461 73.821 642.313 71.492 640.908 71.221C640.032 71.052 638.769 71.573 638.101 72.379ZM600.169 74.594C600.534 77.802 599.085 77.498 622.738 79.323C630.315 79.908 633.565 78.635 632.38 75.548C631.55 73.385 630.022 73.115 614.425 72.378L599.837 71.689L600.169 74.594ZM624.035 86.934C622.536 89.736 622.765 96.302 624.441 98.559C625.593 100.11 626.246 100.278 627.691 99.397C629.879 98.063 630.78 88.645 628.933 86.419C627.288 84.437 625.257 84.651 624.035 86.934ZM524 115.025C524 122.764 524.093 123.085 526.622 124.046C530.934 125.686 532 123.869 532 114.878V107H528H524V115.025ZM569.667 109.667C569.3 110.033 569 114.083 569 118.667C569 126.638 569.098 127.001 571.25 127.014C572.487 127.021 574.513 127.299 575.75 127.63C577.969 128.225 578 128.101 578 118.617V109H574.167C572.058 109 570.033 109.3 569.667 109.667ZM633.673 127.042C632.641 135.638 632.865 157 633.987 157C634.531 157 636.076 155.256 637.421 153.125C640.226 148.681 644.275 145.22 647.662 144.37C649.53 143.901 650 143.11 650 140.438C650 137.524 649.066 136.293 642.75 130.879C638.763 127.46 635.236 123.971 634.914 123.124C634.592 122.277 634.033 124.04 633.673 127.042ZM647 125.841C647 126.294 648.872 128.17 651.16 130.008L655.32 133.351L685.91 134.108C702.735 134.525 727.251 135.357 740.391 135.958C753.532 136.559 764.449 136.884 764.652 136.681C764.855 136.478 762.654 134.813 759.761 132.982C753.96 129.31 753.67 129.28 708.484 127.606C692.583 127.017 692.462 127.029 691.484 129.256C689.809 133.076 680 132.893 680 129.042C680 127.531 679.095 127.013 675.75 126.608C667.246 125.578 647 125.038 647 125.841ZM131 142.234C129.625 142.963 128.5 144.446 128.5 145.53C128.5 147.283 129.083 147.464 133.789 147.175C138.327 146.896 140.104 147.388 146.289 150.637C152.929 154.124 154.173 154.43 162 154.502C169.69 154.572 171.071 154.896 176.5 157.911C187.705 164.134 187.048 163.938 193 162.827C200.101 161.5 206.186 162.257 217.415 165.861C222.784 167.584 230.794 169.204 237 169.82C242.775 170.394 251.775 171.571 257 172.435C262.772 173.39 268.718 173.763 272.152 173.386C275.261 173.044 281.561 173.311 286.152 173.98C292.322 174.88 295.239 174.909 297.331 174.092C305.233 171.009 292.444 167.169 273.943 167.068C265.963 167.025 257.418 166.271 250.5 165C244.513 163.9 237.263 163 234.389 163C231.17 163 224.812 161.625 217.832 159.418C207.433 156.131 205.718 155.869 197 156.233L187.5 156.629L180 152.577C173.001 148.795 171.912 148.511 163.685 148.33C155.975 148.16 154.119 147.744 148.871 145.013C141.942 141.407 134.688 140.279 131 142.234ZM333 146.8C333 153.254 334.095 155 338.141 155C341.825 155 342.217 154.044 341.422 147.013L340.742 141H336.871H333V146.8ZM565.152 142.859C564.41 143.343 563.966 144.586 564.165 145.62C564.447 147.085 565.407 147.5 568.514 147.5C572.099 147.5 572.5 147.249 572.5 145C572.5 142.947 571.964 142.453 569.5 142.239C567.85 142.096 565.893 142.375 565.152 142.859ZM353.604 145.59C352.69 147.97 353.591 148.755 358.113 149.519C362.668 150.289 365.762 148.428 364.668 145.578C363.807 143.334 354.465 143.345 353.604 145.59ZM395.467 148.053C395.109 148.633 395.121 151.734 395.494 154.945C396.131 160.437 396.351 160.82 399.188 161.388C400.848 161.72 402.609 161.742 403.103 161.437C403.596 161.132 404 158.224 404 154.976C404 150.161 403.643 148.879 402.066 148.035C399.571 146.7 396.298 146.709 395.467 148.053ZM370.709 148.624C369.464 149.869 369.948 152.766 371.5 153.362C373.956 154.304 376.131 152.92 375.803 150.623C375.503 148.52 372.135 147.199 370.709 148.624ZM557.387 149.433C556.314 152.231 557.789 154.157 560.744 153.817C562.933 153.565 563.5 152.985 563.5 151C563.5 149.015 562.933 148.435 560.744 148.183C558.947 147.976 557.779 148.411 557.387 149.433ZM358.357 152.513C357.62 154.432 359.705 157 362 157C364.346 157 366.184 154.643 365.41 152.627C364.606 150.53 359.151 150.442 358.357 152.513ZM461 158.412V165.824L464.963 166.494C467.143 166.862 469.393 166.875 469.963 166.523C471.41 165.628 471.274 153.674 469.8 152.2C469.14 151.54 466.89 151 464.8 151H461V158.412ZM506.958 166.55C505.898 167.828 505.951 168.379 507.258 169.687C508.131 170.56 509.555 171.001 510.422 170.668C512.467 169.884 512.464 166.392 510.418 165.607C508.325 164.804 508.432 164.774 506.958 166.55ZM495.359 173.506C494.486 175.781 496.199 177.154 500.141 177.341C503.1 177.481 503.5 177.202 503.5 175C503.5 172.832 503.001 172.459 499.742 172.189C496.994 171.962 495.816 172.316 495.359 173.506ZM481.538 176.605C479.546 178.597 480.874 180.552 484.717 181.286C488.247 181.961 490 181.186 490 178.952C490 176.873 489.57 176.532 485.822 175.637C484.011 175.205 482.625 175.518 481.538 176.605ZM303 178.612C298.325 179.99 291.485 182.163 287.799 183.441C283.142 185.057 279.763 185.615 276.719 185.272C271.467 184.68 260.236 187.426 245.735 192.849C237.998 195.742 233.914 196.7 229 196.776C221.646 196.888 211.353 199.791 202.531 204.24C197.862 206.594 195.14 207.277 190.031 207.375C182.621 207.517 175.151 210.571 163.023 218.417C156.022 222.945 154.925 224.525 157.2 226.8C159.154 228.754 161.669 228.189 165.144 225.016C169.038 221.459 179.918 215.626 185.471 214.118C188.733 213.232 189.59 213.304 190.271 214.52C191.515 216.742 192.635 216.446 203.5 211.023C215.035 205.266 224.511 202.572 230.75 203.275C233.716 203.61 236.769 203.125 240.304 201.758C260.904 193.795 273.587 190.512 277.707 192.079C279.343 192.701 282.519 192.002 289.444 189.495C305.593 183.649 314.541 181.737 322.5 182.431C326.35 182.766 330.128 182.627 330.896 182.121C333.413 180.463 331.232 178.215 326.02 177.098C318.335 175.45 312.405 175.84 303 178.612ZM556.698 187.801C551.914 192.607 548 196.81 548 197.141C548 197.471 551.196 198.057 555.102 198.441C559.009 198.826 562.768 199.357 563.456 199.621C564.381 199.976 564.89 197.45 565.407 189.938C565.792 184.348 565.947 179.614 565.752 179.418C565.556 179.223 561.482 182.995 556.698 187.801ZM535 180.757C535 181.299 538.263 182.047 542.25 182.421C546.237 182.795 550.288 183.333 551.25 183.618C552.212 183.902 553 183.706 553 183.181C553 182.656 550.975 181.951 548.5 181.614C546.025 181.276 541.975 180.724 539.5 180.386C536.799 180.018 535 180.166 535 180.757ZM342.5 184.449C339.75 185.153 335.475 186.68 333 187.842C330.525 189.005 327.703 189.966 326.728 189.978C325.753 189.99 322.008 191.337 318.404 192.971C313.166 195.346 310.998 195.824 307.592 195.358C301.894 194.577 289.533 197.768 277.2 203.205C269.573 206.567 266.538 207.417 263 207.181C257.942 206.843 247.202 209.855 239.5 213.769C235.825 215.637 232.778 216.348 228 216.453C222.591 216.572 220.325 217.217 214.5 220.299C205.07 225.289 201.494 228.24 202.309 230.363C203.484 233.424 205.751 233.186 211.445 229.405C218.024 225.037 227.043 221.673 228.45 223.062C230.107 224.698 232.591 224.104 241.154 220.021C252.013 214.844 261.161 212.459 263.811 214.114C265.436 215.129 267.506 214.528 277.117 210.257C292.079 203.608 298.324 201.878 306.655 202.076C312.708 202.22 314.591 201.756 322.931 198.063C328.118 195.766 336.111 192.8 340.692 191.472C353.05 187.891 355.281 186.291 351.066 184.035C348.787 182.815 348.91 182.809 342.5 184.449ZM525.155 190.067C523.315 191.758 521.965 193.264 522.155 193.412C522.345 193.56 526.406 194.245 531.181 194.934L539.862 196.187L542.855 192.843C545.838 189.513 545.841 189.498 543.612 188.887C542.381 188.549 538.478 187.985 534.937 187.632C528.744 187.016 528.373 187.108 525.155 190.067ZM376.275 191.5C372.368 193.425 368.274 195 367.179 195C366.083 195 362.178 196.35 358.5 198C354.822 199.65 350.262 201 348.365 201C340.404 201 323.382 205.776 313.162 210.877C311.148 211.882 307.344 213.232 304.708 213.877C302.073 214.522 295.993 216.741 291.197 218.809C283.91 221.951 281.96 222.42 279.326 221.664C273.659 220.039 254.043 225.803 249.031 230.566C248.189 231.367 246.412 232.847 245.083 233.855C243.487 235.066 242.885 236.258 243.311 237.367C244.25 239.815 246.82 240.464 248.787 238.751C249.729 237.931 254.005 235.431 258.29 233.197C266.645 228.839 275.469 226.981 279.37 228.759C281.163 229.576 283.763 228.844 293.042 224.909C299.344 222.237 305.525 220.039 306.779 220.025C308.032 220.011 311.632 218.707 314.779 217.127C324.552 212.22 335.932 208.862 345.5 208.061C351.78 207.536 355.558 206.679 358 205.228C362.6 202.494 373.091 198.409 380.123 196.612C388.599 194.447 393.016 190.896 389.784 188.845C387.283 187.258 383.294 188.042 376.275 191.5ZM1065.5 189.604C1043.29 194.96 1035.55 196.045 1017.27 196.373C1005.76 196.579 994.242 197.394 987.5 198.478C976.985 200.168 975.998 200.168 965.111 198.482C955.61 197.01 951.05 196.856 937.611 197.554C928.75 198.015 913.85 198.258 904.5 198.095C895.15 197.931 883.225 198.298 878 198.908C872.775 199.519 853.978 200.193 836.228 200.405C803.507 200.797 801 201.094 801 204.587C801 206.125 804.625 208.35 805.874 207.578C806.331 207.295 821.51 206.844 839.603 206.575C857.696 206.306 877.225 205.575 883 204.951C889.136 204.288 898.487 204.087 905.5 204.467C912.1 204.826 925.15 204.623 934.5 204.017C946.855 203.217 953.413 203.216 958.5 204.014C972.44 206.202 978.359 206.217 995 204.107C1005.94 202.72 1016.05 202.085 1025 202.225C1037.4 202.417 1039.6 202.158 1052 199.055C1062.65 196.388 1067.65 195.657 1075.7 195.588C1082.63 195.528 1086.3 195.901 1087.15 196.75C1087.84 197.438 1089.24 198 1090.27 198C1093.44 198 1092.12 192.815 1088.5 191.061C1085.54 189.626 1069.6 188.616 1065.5 189.604ZM401.5 197.482C389.089 203.342 377.218 207.33 370 208.064C361.318 208.947 352.646 211.934 345.41 216.534C342.611 218.314 338.361 220.101 335.966 220.506C329.102 221.665 320.989 224.746 314.849 228.523C311.741 230.435 308.585 232 307.834 232C305.927 232 298.956 235.791 296.198 238.329C294.634 239.767 294.071 241.145 294.441 242.622C294.954 244.665 294.165 245 281.542 248.1L268.096 251.401L258.798 249.451C250.589 247.728 246.162 247.535 221 247.8C184.02 248.189 165.511 250.374 162.237 254.736C159.873 257.884 163.496 261.42 166.903 259.292C167.954 258.636 172.793 257.313 177.657 256.353C190.915 253.734 250.434 253.684 260.195 256.283C263.941 257.281 268.125 257.791 269.695 257.441C271.238 257.097 277.842 255.508 284.371 253.908C297.814 250.615 301.953 250.366 307.978 252.492C312.063 253.934 312.465 253.88 319.853 250.9C325.41 248.659 329.687 247.688 335.5 247.348C347.164 246.666 347.526 246.519 355.042 239.46C360.515 234.32 362.568 233 365.089 233C366.831 233 370.704 231.6 373.695 229.888C377.779 227.552 379.876 226.925 382.114 227.373C384.466 227.843 386.16 227.235 390.159 224.484C393.848 221.947 396.299 221 399.177 221C402.557 221 403.866 220.287 408.204 216.083C411.604 212.789 413.078 210.644 412.67 209.583C411.742 207.165 409.703 207.665 404.891 211.49C401.897 213.87 399.453 214.984 397.21 214.99C393.864 215 386.678 218.094 385.473 220.044C385.089 220.665 383.588 220.849 381.911 220.48C379.744 220.004 377.576 220.621 373.328 222.922C370.202 224.615 366.25 226 364.545 226C360.844 226 358.307 227.587 351 234.471C343.299 241.726 341.238 242.809 337 241.834C332.476 240.793 327.132 241.642 318.775 244.729C313.107 246.823 311.551 247.039 308.876 246.107C307.13 245.498 304.644 245 303.351 245C299.662 245 300.543 242.274 304.96 240.02C307.138 238.909 309.62 238 310.476 238C311.331 238 314.386 236.438 317.265 234.529C323.463 230.419 332.861 227 337.962 227C340.328 227 342.823 226.093 345.056 224.421C353.093 218.403 365.305 214.02 374.144 213.981C377.233 213.967 382.136 212.346 391 208.407C397.875 205.351 405.413 202.168 407.75 201.332C412.084 199.782 412.941 198.341 410.8 196.2C409.114 194.514 407.237 194.773 401.5 197.482ZM569.139 239.852C567.673 241.42 565.605 244.318 564.542 246.292C563.479 248.266 561.603 250.134 560.374 250.442C559.145 250.751 556.456 252.59 554.4 254.53C552.343 256.47 548.599 258.965 546.08 260.074C543.561 261.183 539.84 263.42 537.811 265.044C534.571 267.637 533.779 267.866 531.311 266.921C526.957 265.254 518.582 266.772 511.359 270.537C506.092 273.283 504.424 273.732 502.38 272.954C498.517 271.486 495.244 271.783 484.469 274.584C475.621 276.883 473.907 277.045 468.874 276.055C459.76 274.262 451.676 276.784 441.402 284.627C437.35 287.72 435.611 288.397 431.342 288.547C426.116 288.73 424.296 289.538 411.721 297.257C406.389 300.53 405.49 300.764 400.109 300.276C391.214 299.47 385.745 301.751 375.471 310.553L366.779 318H358.9C349.079 318 344.494 319.684 332.141 327.829L322.781 334H312.973C301.274 334 297.825 335.246 287.334 343.266C281.658 347.604 278.688 349.106 273.051 350.487C268.465 351.611 263.012 354.016 257.717 357.249C253.198 360.009 247.587 363.371 245.25 364.719C242.843 366.108 233.301 369.058 223.25 371.521C201.757 376.789 191.086 380.1 181.456 384.488C173.419 388.151 171.013 390.87 173.558 393.415C174.963 394.82 175.752 394.647 181.806 391.6C191.034 386.957 204.524 382.572 224 377.887C242.303 373.484 246.494 371.799 259.285 363.706C265.314 359.892 270.096 357.685 274.524 356.675C281.302 355.129 286.27 352.473 294.401 346.048C300.513 341.218 306.265 339.521 313.596 340.382C321.218 341.278 325.372 339.923 335.664 333.182C347.47 325.449 351.402 324 360.586 324C369.354 324 370.482 323.512 378.5 316.249C387.376 308.21 390.86 306.717 401.023 306.599L409.546 306.5L418.452 300.73C426.631 295.432 427.785 294.975 432.59 295.132C437.408 295.289 438.325 294.923 444.161 290.508C454.432 282.738 457.668 281.663 468.389 282.46C476.28 283.046 478.787 282.801 487.111 280.633C495.79 278.372 497.148 278.256 501.111 279.435C505.363 280.701 505.716 280.629 512.442 277.121C518.936 273.734 519.972 273.5 528.482 273.5C537.141 273.5 537.769 273.351 541.539 270.395C546.376 266.602 549.342 265 551.523 265C552.434 265 555.146 262.975 557.552 260.5C559.957 258.025 562.772 256 563.808 256C566.067 256 568.218 253.646 569.943 249.283C571.55 245.22 573.485 243.608 576.828 243.548C578.544 243.517 579.586 242.873 579.814 241.702C580.818 236.562 573.411 235.278 569.139 239.852ZM584.362 244.921C582.406 246.114 580.229 248.937 578.583 252.416C576.499 256.821 575.168 258.321 572.266 259.533C566.679 261.868 558.832 268.19 554.543 273.815C552.427 276.589 549.57 279.142 548.195 279.487C543.814 280.587 537.337 285.772 530.379 293.75C524.455 300.543 523 301.656 518.561 302.791C506.6 305.849 495.196 312.955 483.736 324.489C478.62 329.638 474.977 332.444 472.528 333.12C466.855 334.686 457.873 340.377 447.364 349.061C442.06 353.445 436.77 357.221 435.61 357.452C434.449 357.683 429.9 358.107 425.5 358.394C412.634 359.234 401.866 363.638 385 374.958C379.225 378.834 371.35 383.197 367.5 384.653C363.65 386.108 357.462 388.813 353.75 390.662C348.249 393.403 347 394.466 347 396.406C347 400.046 349.215 400.14 355.612 396.771C358.826 395.079 365.039 392.386 369.42 390.787C374.213 389.038 380.994 385.368 386.443 381.574C403.269 369.858 412.337 366.132 426.709 365.029C438.427 364.13 440.349 363.257 451.73 353.656C460.416 346.329 469.961 340.357 475.271 338.927C478.033 338.183 481.455 335.56 487.401 329.627C499.615 317.44 509.3 311.667 523.607 308.041C526.974 307.188 528.826 305.646 533.876 299.493C540.588 291.315 546.904 286.172 551.323 285.286C553.23 284.904 555.502 282.922 558.323 279.179C563.008 272.965 572.494 265.49 576.934 264.515C580.416 263.75 581.352 262.703 582.927 257.812C584.686 252.347 587.757 248.808 589.821 249.867C592.296 251.138 594 250.154 594 247.452C594 245.134 591.508 242.996 588.816 243.004C588.092 243.006 586.088 243.869 584.362 244.921ZM603.607 253.095C600.799 255.304 597.73 260.645 596.623 265.25C596.259 266.763 595.537 268 595.018 268C594.498 268 591.244 270.616 587.787 273.814C584.329 277.011 579.813 280.648 577.75 281.895C575.688 283.142 572.366 286.157 570.369 288.595C567.691 291.863 564.558 294.048 558.445 296.913C543.395 303.965 535.452 310.792 527.273 323.704C523.244 330.063 521.668 331.644 517.004 333.998C510.134 337.466 503.507 342.421 492.963 351.972C487.25 357.147 481.908 360.836 475.4 364.1C461.695 370.974 454.562 376.506 441.501 390.393C433.1 399.326 428.222 403.658 424.157 405.796C413.892 411.195 400.761 415.783 381 420.877C345.5 430.027 334.49 434.623 336.365 439.51C337.337 442.041 339.76 442.307 342.715 440.207C346.644 437.414 360.396 432.734 377.164 428.482C398.657 423.032 407.52 420.262 418 415.717C431.807 409.73 432.494 409.224 445.404 395.497C458.61 381.455 465.181 376.353 479 369.409C485.863 365.961 490.873 362.466 497.048 356.821C507.67 347.112 512.075 343.855 520.593 339.415C526.544 336.313 527.798 335.113 531.699 328.786C539.883 315.513 546.518 309.665 561.619 302.417C568.722 299.008 571.737 296.898 574.9 293.119C577.151 290.431 580.473 287.529 582.282 286.67C584.092 285.812 587.516 283.035 589.892 280.5C592.268 277.965 595.909 274.82 597.982 273.511C600.897 271.671 601.913 270.265 602.46 267.315C603.425 262.116 606.621 257.194 609.282 256.814C611.805 256.453 612.853 253.156 610.848 251.885C608.657 250.496 606.44 250.866 603.607 253.095ZM634.914 254.537C631.476 256.338 628.067 261.759 624.046 271.817L620.721 280.134L614.278 283.178C606.232 286.98 596.415 296.043 590.922 304.741C588.633 308.366 585.351 312.46 583.63 313.84C577.549 318.713 567.816 329.6 562.293 337.704C558.292 343.574 555.819 346.216 553.601 346.989C541.57 351.182 526.088 364.898 514.619 381.524C506.695 393.011 496.211 402.503 480.346 412.556C462.125 424.101 460.301 425.895 464.25 428.386C465.429 429.13 466.482 429.165 467.476 428.495C468.287 427.948 474.25 424.131 480.726 420.013C499.46 408.101 511.23 397.679 519.5 385.679C531.004 368.987 543.574 357.717 555.701 353.222C559.745 351.723 561.254 350.347 565.294 344.472C573.035 333.217 579.098 326.096 585.495 320.748C588.873 317.924 593.493 312.63 596.079 308.619C602.175 299.165 609.48 292.572 618.452 288.427L625.799 285.032L628.962 276.291C633.366 264.12 635.825 260 638.684 260C640.479 260 641 259.445 641 257.535C641 254.188 638.207 252.812 634.914 254.537ZM660.025 259.695C656.752 263.856 655 268.704 655 273.602C655 277.142 654.249 278.948 650.996 283.23C646.305 289.404 641.583 298.791 639.784 305.519C638.768 309.317 637.721 310.783 634.626 312.736C626.97 317.569 617.079 329.517 609.988 342.5C608.186 345.8 605.486 350.075 603.989 352C600.441 356.563 595.685 365.276 593.478 371.256C592.264 374.547 589.833 377.781 585.584 381.756C577.167 389.631 572.07 396.045 566.575 405.676C562.174 413.39 561.181 414.397 549.012 423.491C541.918 428.792 534.517 433.571 532.565 434.11C527.193 435.593 526.172 442.005 531.309 441.996C534.17 441.991 537.052 440.178 553.237 428.195C566.321 418.508 566.89 417.931 571.827 409.351C577.464 399.552 582.807 392.839 590.825 385.475C595.047 381.599 597.174 378.416 601.088 370.119C603.803 364.363 607.769 357.368 609.901 354.576C612.032 351.784 614.932 347.191 616.345 344.37C619.742 337.581 630.091 323.929 634.215 320.794C636.022 319.42 638.88 317.586 640.567 316.717C643.088 315.419 643.945 314.017 645.387 308.832C647.571 300.976 652.798 290.918 657.911 284.73C661.343 280.577 661.749 279.544 661.29 276.122C660.584 270.863 662.601 265.139 665.648 263.75C667.475 262.918 668.022 261.982 667.799 260.067C667.35 256.215 662.929 256.003 660.025 259.695ZM382.5 259.201C380.85 259.774 376.403 261.581 372.618 263.216C365.189 266.424 362.794 266.463 355 263.502C348.869 261.173 339.589 262.02 328.363 265.936C318.307 269.443 317.164 269.538 309.427 267.523C302.364 265.683 298.64 266.424 286.611 272.061C277.075 276.53 278.218 276.419 262.332 274.414C256.498 273.677 250.789 274.798 237.66 279.258C229.801 281.928 228.135 282.17 222.66 281.438C219.272 280.986 212 280.605 206.5 280.591C197.407 280.569 195.23 280.969 182.5 284.999L168.5 289.431L152 289.51C134.588 289.593 133.859 289.716 115.5 295.684C104.5 299.26 101 301.172 101 303.605C101 306.727 104.239 306.632 113.254 303.246C129.529 297.133 135.676 296 152.578 296C167.76 296 167.909 295.978 182.668 291.537C201.658 285.822 206.306 285.29 218.146 287.476L227.5 289.203L240.466 285.048C254.366 280.594 260.829 279.918 269.233 282.036C275.416 283.594 278.568 282.906 290 277.501C300.448 272.561 303.612 272.145 311.596 274.662C316.858 276.321 316.888 276.318 326.684 273.163C343.438 267.768 346.648 267.477 355.538 270.545C364.241 273.549 364.972 273.468 376.5 268.214C382.357 265.544 386.009 264.527 390.13 264.417C397.967 264.207 399.717 262.86 396.429 259.571C394.622 257.765 387.198 257.568 382.5 259.201ZM689.614 264.261C685.955 269.059 684 275.312 684 282.221C684 286.36 683.441 289.006 682.178 290.846C679.104 295.322 676.307 302.986 673.478 314.683C671.026 324.82 670.113 326.879 663.722 336.683C650.988 356.22 644.421 373.03 646.826 379.93C648.16 383.756 647.915 384.462 639.468 401.128C635.948 408.073 631.885 417.298 630.44 421.628C627.157 431.466 624.886 434.475 615.148 441.887C598.371 454.659 593.063 460.818 591.457 469.376C591.058 471.502 590.036 473.398 589.124 473.704C578.412 477.295 563.737 487.172 564.21 490.473C564.687 493.806 568.154 493.321 573.699 489.144C578.729 485.355 583.421 482.81 591.248 479.628C595.143 478.044 596.192 476.427 598.02 469.193C599.431 463.608 604.048 458.58 616.854 448.687C628.776 439.476 633.105 434.123 636.011 425C637.15 421.425 641.539 411.525 645.765 403L653.449 387.5L653.511 378C653.569 369.257 653.858 367.896 657.142 360.923C659.105 356.755 663.557 348.88 667.037 343.423C675.726 329.793 677.697 325.809 679.018 319.2C681.109 308.736 683.911 300.531 687.335 294.845C690.31 289.903 690.667 288.591 690.242 284.162C689.493 276.371 690.705 272.014 694.658 268.286C698.688 264.485 698.759 261.648 694.836 261.193C692.811 260.958 691.584 261.678 689.614 264.261ZM441.177 266.006C438.8 267.085 435.533 268.908 433.918 270.058C431.263 271.949 430.624 272.025 427.241 270.857C425.183 270.146 419.675 269.577 415 269.592C404.906 269.624 397.167 271.766 380.165 279.231C369.717 283.819 367.509 284.422 359 285.007C351.846 285.5 347.895 286.352 343 288.461C332.598 292.941 331.349 293.174 313.886 293.882L297.271 294.555L284.386 301.028L271.5 307.5L264 307.136C236.85 305.819 236.375 305.903 213.562 316.009C206.1 319.314 194.933 323.38 188.747 325.043C182.561 326.706 175.813 328.52 173.75 329.074C171.009 329.809 170 330.616 170 332.072C170 333.167 170.746 334.349 171.658 334.699C175.835 336.302 197.717 329.976 215.603 321.994C234.939 313.366 241.546 311.565 250.349 312.526C254.282 312.956 261.107 313.35 265.515 313.404C273.456 313.499 273.648 313.441 286.486 307.009L299.442 300.519L315.971 299.933C329.534 299.452 333.532 298.957 338.25 297.173C353.923 291.25 355.488 290.822 359.295 291.431C364.045 292.191 368.841 290.939 381 285.768C386.225 283.546 393.425 280.633 397 279.296C407.317 275.437 421.284 275.102 430.143 278.501C430.913 278.797 434.458 277.121 438.021 274.777C444.716 270.374 447.528 269.876 458.5 271.151C460.931 271.434 461.557 271.098 461.803 269.38C462.04 267.717 461.226 266.907 458.032 265.63C452.626 263.466 446.47 263.604 441.177 266.006ZM730.306 266.498C725.163 270.101 722.822 286.366 726.157 295.328C727.507 298.954 727.435 299.454 724.788 304.828C721.459 311.588 719.612 320.743 720.508 326.044C720.978 328.829 720.468 331.924 718.645 337.352C712.938 354.344 712.548 367.737 717.446 378.5C720.68 385.606 720.891 390.276 718.509 401.957C717.37 407.54 717.002 412.299 717.422 416.01C717.873 420.004 717.616 422.676 716.527 425.281C714.304 430.601 712.531 448.255 713.953 450.912C715.181 453.207 718.447 453.703 719.639 451.775C720.055 451.102 720.453 446.264 720.524 441.025C720.626 433.492 721.09 430.653 722.745 427.449C724.532 423.989 724.759 422.236 724.294 415.449C723.924 410.054 724.272 404.975 725.375 399.643C727.647 388.66 727.448 385.921 723.75 377.18C720.832 370.284 720.514 368.581 720.637 360.5C720.743 353.587 721.406 349.645 723.5 343.5C725.446 337.787 726.432 332.356 726.95 324.5C727.662 313.707 728.573 310.569 733.456 302.09C734.676 299.971 734.6 299.064 732.825 294.59C729.337 285.796 730.167 273.401 734.283 272.815C736.846 272.451 737.829 268.704 735.954 266.445C734.428 264.606 732.988 264.62 730.306 266.498ZM759.115 274.885C755.947 278.053 754.661 284.32 756.047 289.838C757.373 295.118 757.408 296.539 756.476 307C755.885 313.637 756.112 315.305 758.45 321.5C766.588 343.061 768.269 349.306 768.546 359C768.696 364.225 768.859 368.88 768.909 369.344C768.959 369.808 771.215 369.883 773.922 369.511C778.414 368.893 778.985 369.048 780.451 371.285C782.669 374.67 784.488 388.586 784.221 400.127C783.956 411.56 784.756 412.941 790.451 410.882C795.546 409.039 796.319 410.313 796.739 421.242C797.243 434.397 797.392 434.811 802.397 436.956C807.732 439.243 810.163 442.571 815.496 454.89C819.113 463.246 819.972 464.5 822.078 464.5C824.162 464.5 824.48 464.057 824.36 461.319C824.134 456.187 814.912 437.991 810.641 434.25C808.6 432.462 806.33 431 805.596 431C804.059 431 803.027 425.919 803.011 418.27C802.991 408.833 799.149 403 792.953 403C791.232 403 791 402.285 791 396.989C791 389.118 788.294 372.47 786.428 368.862C784.783 365.68 781.794 363.453 777.877 362.491C775.413 361.886 775.223 361.41 774.757 354.673C774.288 347.902 773.173 344.041 764.366 318.701C761.738 311.14 761.695 310.662 762.936 303.018C764.078 295.986 764.03 294.644 762.489 290.61C760.61 285.689 761.04 281.738 763.786 278.691C764.988 277.358 765.146 276.455 764.387 275.251C762.824 272.774 761.33 272.67 759.115 274.885ZM784.361 279.697C783.934 281.4 784.111 282.537 784.842 282.781C786.42 283.307 786.296 286.174 784.416 292.642C782.571 298.989 783.463 301 788.122 301C791.386 301 794.724 303.85 795.414 307.225C795.67 308.476 796.092 313.1 796.35 317.5C796.944 327.603 797.389 328.648 802.122 331.062C806.66 333.377 809.664 337.63 816.5 351.416L821.5 361.5L827.715 361.797C833.159 362.057 834.169 362.429 835.851 364.797C838.526 368.563 840.555 373.694 844.457 386.566C847.249 395.776 848.887 399.194 854.053 406.586C861.31 416.969 868.693 426.692 869.878 427.425C870.334 427.706 872.1 427.411 873.804 426.768C876.663 425.689 877.333 425.897 882.524 429.472C885.617 431.602 890.405 435.855 893.164 438.923C900.26 446.812 910 460.677 910 462.889C910 465.425 912.481 467.3 914.844 466.549C919.523 465.064 917.696 460.09 907.487 446.526C895.154 430.139 883.069 420 875.871 420C871.634 420 869.892 418.209 859.338 403C854.494 396.02 852.831 392.474 850.038 383.171C845.984 369.667 841.531 360.434 837.711 357.612C835.894 356.269 833.289 355.52 830.235 355.463L825.549 355.375L820.524 345.437C814.656 333.831 811.034 328.802 806.542 326.026C803.372 324.067 803.284 323.818 802.725 315.26C801.883 302.377 799.11 296.842 792.804 295.457C790.628 294.979 790.02 294.39 790.477 293.2C791.93 289.413 792.195 282.884 791.011 280.026C789.331 275.97 785.346 275.772 784.361 279.697ZM824.323 283.25C823.278 284.893 823.944 301.999 825.14 304.25C825.652 305.212 826.947 306 828.019 306C831.104 306 835.78 310.943 839.358 317.985C842.822 324.802 843.248 325.084 852.224 326.495C858.24 327.441 865.344 334.832 869.482 344.449C871.363 348.821 873.487 352.985 874.201 353.703C874.916 354.42 877.79 357.156 880.59 359.783C886.48 365.309 902.914 386.964 904.953 391.885C905.911 394.198 908.367 396.535 912.919 399.462C924.756 407.073 944.436 424.177 950.486 432.11C955.911 439.223 961.287 438.323 957.469 430.94C954.136 424.494 929.869 402.63 917.25 394.703C913.813 392.543 911 390.341 911 389.808C911 386.704 888.28 356.976 882.592 352.638C880.137 350.766 877.688 347.089 874.577 340.607C869.2 329.404 862.776 322.902 854.721 320.51C851.925 319.679 849.051 319 848.335 319C847.619 319 845.926 316.814 844.572 314.143C841.336 307.757 837.944 303.823 833.701 301.538C830.327 299.722 830.231 299.496 829.774 292.374C829.221 283.761 826.691 279.526 824.323 283.25ZM859.587 283.859C858.928 284.926 861.895 301.2 862.953 302.312C863.377 302.759 865.389 303.279 867.423 303.469C872.91 303.979 878.619 308.52 884.725 317.234C888.313 322.354 890.823 325 892.094 325C898.061 325 914.429 337.796 921.484 347.977C922.994 350.156 926.54 353.262 929.365 354.88C932.189 356.498 940.702 362.766 948.283 368.811C955.864 374.855 963.246 380.096 964.687 380.458C971.832 382.251 980.879 391.341 986.343 402.217C988.636 406.781 990.047 408.5 991.5 408.5C995.991 408.5 993.185 398.907 985.853 389.192C981.565 383.51 971.366 375.381 967.22 374.34C965.831 373.992 958.201 368.588 950.265 362.332C942.329 356.075 934.158 350.101 932.106 349.054C930.055 348.008 927.109 345.321 925.558 343.084C918.538 332.954 900.781 319 894.911 319C893.977 319 892.995 318.438 892.728 317.75C892.461 317.063 890.177 313.756 887.652 310.403C882.619 303.72 877.485 299.825 871.244 297.955C867.451 296.819 867.144 296.446 866.509 292.211C865.501 285.488 864.305 283 862.084 283C861.003 283 859.879 283.386 859.587 283.859Z" fill="#47352C"/></svg>