<svg xmlns="http://www.w3.org/2000/svg" viewBox="0 0 32 40" x="0px" y="0px"><title>LOCATION</title><g data-name="Layer 11"><path d="M16,27.87l.8-1.06c.87-1.16,8.53-11.46,8.53-16.26a9.33,9.33,0,0,0-18.66,0c0,4.8,7.66,15.1,8.53,16.26ZM16,3.22a7.34,7.34,0,0,1,7.33,7.33c0,3.14-4.73,10.35-7.33,14-2.6-3.61-7.33-10.83-7.33-14A7.34,7.34,0,0,1,16,3.22Z"/><path d="M20.65,9.06A4.65,4.65,0,1,0,16,13.71,4.66,4.66,0,0,0,20.65,9.06Zm-7.3,0A2.65,2.65,0,1,1,16,11.71,2.65,2.65,0,0,1,13.35,9.06Z"/><path d="M22.19,19.3l-.53,1.93c3.14.86,5.17,2.41,5.17,4,0,2.22-4.44,4.69-10.82,4.69S5.18,27.4,5.18,25.18c0-1.54,2-3.09,5.17-4L9.81,19.3c-4.15,1.14-6.63,3.34-6.63,5.88,0,3.75,5.63,6.69,12.82,6.69s12.82-2.94,12.82-6.69C28.82,22.64,26.34,20.44,22.19,19.3Z"/></g><text x="0" y="47" fill="#C6AD78" font-size="5px" font-weight="bold" font-family="'Helvetica Neue', Helvetica, Arial-Unicode, Arial, Sans-serif">Created by icon trip</text><text x="0" y="52" fill="#C6AD78" font-size="5px" font-weight="bold" font-family="'Helvetica Neue', Helvetica, Arial-Unicode, Arial, Sans-serif">from the Noun Project</text></svg>