<svg width="24" height="24" viewBox="0 0 24 24" fill="none" xmlns="http://www.w3.org/2000/svg">
<path d="M2 14V9.99998C2 9.4477 2.44772 8.99998 3 8.99998H5.69722C5.89465 8.99998 6.08766 8.94155 6.25192 8.83204L10.4453 6.03645C11.1099 5.59341 12 6.0698 12 6.8685V17.1315C12 17.9302 11.1099 18.4066 10.4453 17.9635L6.25192 15.1679C6.08766 15.0584 5.89465 15 5.69722 15H3C2.44772 15 2 14.5523 2 14Z" stroke="white" stroke-width="1.5"/>
<path d="M16.5 7.5C16.5 7.5 18 9 18 11.5C18 14 16.5 15.5 16.5 15.5" stroke="white" stroke-width="1.5" stroke-linecap="round" stroke-linejoin="round"/>
<path d="M19.5 4.5C19.5 4.5 22 7 22 11.5C22 16 19.5 18.5 19.5 18.5" stroke="white" stroke-width="1.5" stroke-linecap="round" stroke-linejoin="round"/>
</svg>
