<svg width="24" height="24" viewBox="0 0 24 24" fill="none" xmlns="http://www.w3.org/2000/svg">
<path d="M19.0005 12L21 14M17 14L19.0005 12L17 14ZM21 10L19.0005 12L21 10ZM19.0005 12L17 10L19.0005 12Z" stroke="white" stroke-width="1.5" stroke-linecap="round" stroke-linejoin="round"/>
<path d="M3 14V9.99998C3 9.4477 3.44772 8.99998 4 8.99998H6.69722C6.89465 8.99998 7.08766 8.94155 7.25192 8.83204L11.4453 6.03645C12.1099 5.59341 13 6.0698 13 6.8685V17.1315C13 17.9302 12.1099 18.4066 11.4453 17.9635L7.25192 15.1679C7.08766 15.0584 6.89465 15 6.69722 15H4C3.44772 15 3 14.5523 3 14Z" stroke="white" stroke-width="1.5"/>
</svg>
